<svg width="306" height="306" viewBox="0 0 306 306" fill="none" xmlns="http://www.w3.org/2000/svg">
<path fill-rule="evenodd" clip-rule="evenodd" d="M207.29 296.088C264.99 274.184 306 218.381 306 153C306 68.5004 237.5 0 153 0C68.5004 0 0 68.5004 0 153C0 219.089 41.9029 275.391 100.59 296.788V219.794C100.59 217.282 99.6195 215.627 97.6784 214.828C95.7374 214.028 93.3397 213.629 90.4852 213.629H88.9437V204.38H145.291V213.629H143.921C142.779 213.629 141.58 213.686 140.324 213.8C139.183 213.8 138.098 213.914 137.07 214.143C136.043 214.257 135.186 214.428 134.501 214.656C133.93 214.771 133.645 214.999 133.645 215.341V257.816H174.236V215.341C174.236 214.999 173.893 214.771 173.208 214.656C172.637 214.428 171.838 214.257 170.81 214.143C169.783 213.914 168.698 213.8 167.556 213.8C166.414 213.686 165.215 213.629 163.959 213.629H162.589V204.38H218.937V213.629H217.395C214.541 213.629 212.143 214.028 210.202 214.828C208.261 215.627 207.29 217.282 207.29 219.794V296.088ZM174.236 304.538V268.777H133.645V304.787C139.984 305.588 146.444 306 153 306C160.206 306 167.295 305.502 174.236 304.538ZM130.904 176.521C138.554 179.489 146.946 180.974 156.081 180.974C165.215 180.974 173.607 179.489 181.257 176.521C188.907 173.552 195.53 169.327 201.125 163.847C206.834 158.366 211.229 151.801 214.312 144.151C217.395 136.387 218.937 127.823 218.937 118.46C218.937 109.098 217.395 100.591 214.312 92.9414C211.229 85.2914 206.834 78.7262 201.125 73.2456C195.53 67.6508 188.907 63.3691 181.257 60.4005C173.607 57.4318 165.215 55.9475 156.081 55.9475C146.946 55.9475 138.554 57.4318 130.904 60.4005C123.254 63.3691 116.574 67.6508 110.865 73.2456C105.271 78.7262 100.932 85.2914 97.849 92.9414C94.7661 100.591 93.2247 109.098 93.2247 118.46C93.2247 127.823 94.7661 136.387 97.849 144.151C100.932 151.801 105.271 158.366 110.865 163.847C116.574 169.327 123.254 173.552 130.904 176.521ZM167.727 166.244C164.302 168.414 160.419 169.499 156.081 169.499C151.742 169.499 147.803 168.414 144.263 166.244C140.838 164.075 137.869 160.878 135.357 156.653C132.959 152.315 131.075 147.005 129.705 140.725C128.449 134.331 127.821 126.91 127.821 118.46C127.821 110.125 128.449 102.818 129.705 96.5381C131.075 90.1441 132.959 84.7777 135.357 80.4389C137.869 76.1001 140.838 72.846 144.263 70.6766C147.803 68.5072 151.742 67.4225 156.081 67.4225C160.419 67.4225 164.302 68.5072 167.727 70.6766C171.267 72.846 174.235 76.1001 176.633 80.4389C179.145 84.7777 181.029 90.1441 182.285 96.5381C183.655 102.818 184.34 110.125 184.34 118.46C184.34 126.91 183.655 134.331 182.285 140.725C181.029 147.005 179.145 152.315 176.633 156.653C174.235 160.878 171.267 164.075 167.727 166.244Z" fill="#ECAEAE"/>
</svg>
